<?xml version="1.0" encoding="UTF-8"?>
<svg xmlns="http://www.w3.org/2000/svg"
     width="530" height="530" viewBox="0 0 530 530"
     shape-rendering="crispEdges">
  <rect width="100%" height="100%" fill="#fff"/>
  <g fill="#000">
    <rect x="60" y="60" width="10" height="10"/><rect x="70" y="60" width="10" height="10"/><rect x="80" y="60" width="10" height="10"/><rect x="90" y="60" width="10" height="10"/><rect x="100" y="60" width="10" height="10"/><rect x="110" y="60" width="10" height="10"/><rect x="120" y="60" width="10" height="10"/><rect x="140" y="60" width="10" height="10"/><rect x="150" y="60" width="10" height="10"/><rect x="160" y="60" width="10" height="10"/><rect x="170" y="60" width="10" height="10"/><rect x="190" y="60" width="10" height="10"/><rect x="210" y="60" width="10" height="10"/><rect x="230" y="60" width="10" height="10"/><rect x="250" y="60" width="10" height="10"/><rect x="280" y="60" width="10" height="10"/><rect x="310" y="60" width="10" height="10"/><rect x="320" y="60" width="10" height="10"/><rect x="350" y="60" width="10" height="10"/><rect x="360" y="60" width="10" height="10"/><rect x="400" y="60" width="10" height="10"/><rect x="410" y="60" width="10" height="10"/><rect x="420" y="60" width="10" height="10"/><rect x="430" y="60" width="10" height="10"/><rect x="440" y="60" width="10" height="10"/><rect x="450" y="60" width="10" height="10"/><rect x="460" y="60" width="10" height="10"/><rect x="60" y="70" width="10" height="10"/><rect x="120" y="70" width="10" height="10"/><rect x="160" y="70" width="10" height="10"/><rect x="210" y="70" width="10" height="10"/><rect x="260" y="70" width="10" height="10"/><rect x="270" y="70" width="10" height="10"/><rect x="280" y="70" width="10" height="10"/><rect x="300" y="70" width="10" height="10"/><rect x="340" y="70" width="10" height="10"/><rect x="380" y="70" width="10" height="10"/><rect x="400" y="70" width="10" height="10"/><rect x="460" y="70" width="10" height="10"/><rect x="60" y="80" width="10" height="10"/><rect x="80" y="80" width="10" height="10"/><rect x="90" y="80" width="10" height="10"/><rect x="100" y="80" width="10" height="10"/><rect x="120" y="80" width="10" height="10"/><rect x="140" y="80" width="10" height="10"/><rect x="150" y="80" width="10" height="10"/><rect x="170" y="80" width="10" height="10"/><rect x="220" y="80" width="10" height="10"/><rect x="230" y="80" width="10" height="10"/><rect x="260" y="80" width="10" height="10"/><rect x="280" y="80" width="10" height="10"/><rect x="290" y="80" width="10" height="10"/><rect x="300" y="80" width="10" height="10"/><rect x="310" y="80" width="10" height="10"/><rect x="340" y="80" width="10" height="10"/><rect x="350" y="80" width="10" height="10"/><rect x="400" y="80" width="10" height="10"/><rect x="420" y="80" width="10" height="10"/><rect x="430" y="80" width="10" height="10"/><rect x="440" y="80" width="10" height="10"/><rect x="460" y="80" width="10" height="10"/><rect x="60" y="90" width="10" height="10"/><rect x="80" y="90" width="10" height="10"/><rect x="90" y="90" width="10" height="10"/><rect x="100" y="90" width="10" height="10"/><rect x="120" y="90" width="10" height="10"/><rect x="160" y="90" width="10" height="10"/><rect x="200" y="90" width="10" height="10"/><rect x="210" y="90" width="10" height="10"/><rect x="250" y="90" width="10" height="10"/><rect x="280" y="90" width="10" height="10"/><rect x="330" y="90" width="10" height="10"/><rect x="340" y="90" width="10" height="10"/><rect x="350" y="90" width="10" height="10"/><rect x="360" y="90" width="10" height="10"/><rect x="380" y="90" width="10" height="10"/><rect x="400" y="90" width="10" height="10"/><rect x="420" y="90" width="10" height="10"/><rect x="430" y="90" width="10" height="10"/><rect x="440" y="90" width="10" height="10"/><rect x="460" y="90" width="10" height="10"/><rect x="60" y="100" width="10" height="10"/><rect x="80" y="100" width="10" height="10"/><rect x="90" y="100" width="10" height="10"/><rect x="100" y="100" width="10" height="10"/><rect x="120" y="100" width="10" height="10"/><rect x="160" y="100" width="10" height="10"/><rect x="170" y="100" width="10" height="10"/><rect x="180" y="100" width="10" height="10"/><rect x="190" y="100" width="10" height="10"/><rect x="210" y="100" width="10" height="10"/><rect x="230" y="100" width="10" height="10"/><rect x="280" y="100" width="10" height="10"/><rect x="340" y="100" width="10" height="10"/><rect x="350" y="100" width="10" height="10"/><rect x="360" y="100" width="10" height="10"/><rect x="380" y="100" width="10" height="10"/><rect x="400" y="100" width="10" height="10"/><rect x="420" y="100" width="10" height="10"/><rect x="430" y="100" width="10" height="10"/><rect x="440" y="100" width="10" height="10"/><rect x="460" y="100" width="10" height="10"/><rect x="60" y="110" width="10" height="10"/><rect x="120" y="110" width="10" height="10"/><rect x="140" y="110" width="10" height="10"/><rect x="160" y="110" width="10" height="10"/><rect x="200" y="110" width="10" height="10"/><rect x="220" y="110" width="10" height="10"/><rect x="230" y="110" width="10" height="10"/><rect x="270" y="110" width="10" height="10"/><rect x="280" y="110" width="10" height="10"/><rect x="300" y="110" width="10" height="10"/><rect x="310" y="110" width="10" height="10"/><rect x="320" y="110" width="10" height="10"/><rect x="340" y="110" width="10" height="10"/><rect x="350" y="110" width="10" height="10"/><rect x="360" y="110" width="10" height="10"/><rect x="400" y="110" width="10" height="10"/><rect x="460" y="110" width="10" height="10"/><rect x="60" y="120" width="10" height="10"/><rect x="70" y="120" width="10" height="10"/><rect x="80" y="120" width="10" height="10"/><rect x="90" y="120" width="10" height="10"/><rect x="100" y="120" width="10" height="10"/><rect x="110" y="120" width="10" height="10"/><rect x="120" y="120" width="10" height="10"/><rect x="140" y="120" width="10" height="10"/><rect x="160" y="120" width="10" height="10"/><rect x="180" y="120" width="10" height="10"/><rect x="200" y="120" width="10" height="10"/><rect x="220" y="120" width="10" height="10"/><rect x="240" y="120" width="10" height="10"/><rect x="260" y="120" width="10" height="10"/><rect x="280" y="120" width="10" height="10"/><rect x="300" y="120" width="10" height="10"/><rect x="320" y="120" width="10" height="10"/><rect x="340" y="120" width="10" height="10"/><rect x="360" y="120" width="10" height="10"/><rect x="380" y="120" width="10" height="10"/><rect x="400" y="120" width="10" height="10"/><rect x="410" y="120" width="10" height="10"/><rect x="420" y="120" width="10" height="10"/><rect x="430" y="120" width="10" height="10"/><rect x="440" y="120" width="10" height="10"/><rect x="450" y="120" width="10" height="10"/><rect x="460" y="120" width="10" height="10"/><rect x="150" y="130" width="10" height="10"/><rect x="160" y="130" width="10" height="10"/><rect x="180" y="130" width="10" height="10"/><rect x="190" y="130" width="10" height="10"/><rect x="200" y="130" width="10" height="10"/><rect x="210" y="130" width="10" height="10"/><rect x="240" y="130" width="10" height="10"/><rect x="250" y="130" width="10" height="10"/><rect x="260" y="130" width="10" height="10"/><rect x="290" y="130" width="10" height="10"/><rect x="320" y="130" width="10" height="10"/><rect x="360" y="130" width="10" height="10"/><rect x="380" y="130" width="10" height="10"/><rect x="60" y="140" width="10" height="10"/><rect x="80" y="140" width="10" height="10"/><rect x="120" y="140" width="10" height="10"/><rect x="130" y="140" width="10" height="10"/><rect x="150" y="140" width="10" height="10"/><rect x="160" y="140" width="10" height="10"/><rect x="170" y="140" width="10" height="10"/><rect x="190" y="140" width="10" height="10"/><rect x="210" y="140" width="10" height="10"/><rect x="250" y="140" width="10" height="10"/><rect x="300" y="140" width="10" height="10"/><rect x="330" y="140" width="10" height="10"/><rect x="340" y="140" width="10" height="10"/><rect x="370" y="140" width="10" height="10"/><rect x="410" y="140" width="10" height="10"/><rect x="440" y="140" width="10" height="10"/><rect x="460" y="140" width="10" height="10"/><rect x="70" y="150" width="10" height="10"/><rect x="80" y="150" width="10" height="10"/><rect x="100" y="150" width="10" height="10"/><rect x="110" y="150" width="10" height="10"/><rect x="130" y="150" width="10" height="10"/><rect x="150" y="150" width="10" height="10"/><rect x="180" y="150" width="10" height="10"/><rect x="190" y="150" width="10" height="10"/><rect x="230" y="150" width="10" height="10"/><rect x="250" y="150" width="10" height="10"/><rect x="260" y="150" width="10" height="10"/><rect x="270" y="150" width="10" height="10"/><rect x="290" y="150" width="10" height="10"/><rect x="330" y="150" width="10" height="10"/><rect x="340" y="150" width="10" height="10"/><rect x="350" y="150" width="10" height="10"/><rect x="360" y="150" width="10" height="10"/><rect x="370" y="150" width="10" height="10"/><rect x="380" y="150" width="10" height="10"/><rect x="400" y="150" width="10" height="10"/><rect x="440" y="150" width="10" height="10"/><rect x="460" y="150" width="10" height="10"/><rect x="60" y="160" width="10" height="10"/><rect x="80" y="160" width="10" height="10"/><rect x="90" y="160" width="10" height="10"/><rect x="110" y="160" width="10" height="10"/><rect x="120" y="160" width="10" height="10"/><rect x="150" y="160" width="10" height="10"/><rect x="200" y="160" width="10" height="10"/><rect x="210" y="160" width="10" height="10"/><rect x="230" y="160" width="10" height="10"/><rect x="240" y="160" width="10" height="10"/><rect x="250" y="160" width="10" height="10"/><rect x="270" y="160" width="10" height="10"/><rect x="280" y="160" width="10" height="10"/><rect x="290" y="160" width="10" height="10"/><rect x="310" y="160" width="10" height="10"/><rect x="320" y="160" width="10" height="10"/><rect x="330" y="160" width="10" height="10"/><rect x="350" y="160" width="10" height="10"/><rect x="370" y="160" width="10" height="10"/><rect x="400" y="160" width="10" height="10"/><rect x="410" y="160" width="10" height="10"/><rect x="430" y="160" width="10" height="10"/><rect x="440" y="160" width="10" height="10"/><rect x="460" y="160" width="10" height="10"/><rect x="80" y="170" width="10" height="10"/><rect x="90" y="170" width="10" height="10"/><rect x="160" y="170" width="10" height="10"/><rect x="170" y="170" width="10" height="10"/><rect x="200" y="170" width="10" height="10"/><rect x="250" y="170" width="10" height="10"/><rect x="260" y="170" width="10" height="10"/><rect x="300" y="170" width="10" height="10"/><rect x="320" y="170" width="10" height="10"/><rect x="330" y="170" width="10" height="10"/><rect x="340" y="170" width="10" height="10"/><rect x="360" y="170" width="10" height="10"/><rect x="370" y="170" width="10" height="10"/><rect x="380" y="170" width="10" height="10"/><rect x="410" y="170" width="10" height="10"/><rect x="420" y="170" width="10" height="10"/><rect x="430" y="170" width="10" height="10"/><rect x="450" y="170" width="10" height="10"/><rect x="460" y="170" width="10" height="10"/><rect x="60" y="180" width="10" height="10"/><rect x="70" y="180" width="10" height="10"/><rect x="100" y="180" width="10" height="10"/><rect x="120" y="180" width="10" height="10"/><rect x="130" y="180" width="10" height="10"/><rect x="140" y="180" width="10" height="10"/><rect x="150" y="180" width="10" height="10"/><rect x="170" y="180" width="10" height="10"/><rect x="180" y="180" width="10" height="10"/><rect x="220" y="180" width="10" height="10"/><rect x="260" y="180" width="10" height="10"/><rect x="280" y="180" width="10" height="10"/><rect x="290" y="180" width="10" height="10"/><rect x="330" y="180" width="10" height="10"/><rect x="340" y="180" width="10" height="10"/><rect x="360" y="180" width="10" height="10"/><rect x="380" y="180" width="10" height="10"/><rect x="400" y="180" width="10" height="10"/><rect x="410" y="180" width="10" height="10"/><rect x="450" y="180" width="10" height="10"/><rect x="460" y="180" width="10" height="10"/><rect x="80" y="190" width="10" height="10"/><rect x="130" y="190" width="10" height="10"/><rect x="160" y="190" width="10" height="10"/><rect x="200" y="190" width="10" height="10"/><rect x="210" y="190" width="10" height="10"/><rect x="260" y="190" width="10" height="10"/><rect x="280" y="190" width="10" height="10"/><rect x="320" y="190" width="10" height="10"/><rect x="340" y="190" width="10" height="10"/><rect x="350" y="190" width="10" height="10"/><rect x="370" y="190" width="10" height="10"/><rect x="380" y="190" width="10" height="10"/><rect x="400" y="190" width="10" height="10"/><rect x="410" y="190" width="10" height="10"/><rect x="460" y="190" width="10" height="10"/><rect x="60" y="200" width="10" height="10"/><rect x="110" y="200" width="10" height="10"/><rect x="120" y="200" width="10" height="10"/><rect x="150" y="200" width="10" height="10"/><rect x="160" y="200" width="10" height="10"/><rect x="200" y="200" width="10" height="10"/><rect x="210" y="200" width="10" height="10"/><rect x="220" y="200" width="10" height="10"/><rect x="240" y="200" width="10" height="10"/><rect x="260" y="200" width="10" height="10"/><rect x="270" y="200" width="10" height="10"/><rect x="290" y="200" width="10" height="10"/><rect x="310" y="200" width="10" height="10"/><rect x="320" y="200" width="10" height="10"/><rect x="340" y="200" width="10" height="10"/><rect x="350" y="200" width="10" height="10"/><rect x="360" y="200" width="10" height="10"/><rect x="370" y="200" width="10" height="10"/><rect x="380" y="200" width="10" height="10"/><rect x="390" y="200" width="10" height="10"/><rect x="400" y="200" width="10" height="10"/><rect x="460" y="200" width="10" height="10"/><rect x="80" y="210" width="10" height="10"/><rect x="110" y="210" width="10" height="10"/><rect x="140" y="210" width="10" height="10"/><rect x="160" y="210" width="10" height="10"/><rect x="190" y="210" width="10" height="10"/><rect x="200" y="210" width="10" height="10"/><rect x="210" y="210" width="10" height="10"/><rect x="240" y="210" width="10" height="10"/><rect x="250" y="210" width="10" height="10"/><rect x="260" y="210" width="10" height="10"/><rect x="320" y="210" width="10" height="10"/><rect x="330" y="210" width="10" height="10"/><rect x="340" y="210" width="10" height="10"/><rect x="370" y="210" width="10" height="10"/><rect x="390" y="210" width="10" height="10"/><rect x="400" y="210" width="10" height="10"/><rect x="420" y="210" width="10" height="10"/><rect x="430" y="210" width="10" height="10"/><rect x="450" y="210" width="10" height="10"/><rect x="60" y="220" width="10" height="10"/><rect x="80" y="220" width="10" height="10"/><rect x="90" y="220" width="10" height="10"/><rect x="110" y="220" width="10" height="10"/><rect x="120" y="220" width="10" height="10"/><rect x="130" y="220" width="10" height="10"/><rect x="140" y="220" width="10" height="10"/><rect x="160" y="220" width="10" height="10"/><rect x="170" y="220" width="10" height="10"/><rect x="180" y="220" width="10" height="10"/><rect x="210" y="220" width="10" height="10"/><rect x="220" y="220" width="10" height="10"/><rect x="260" y="220" width="10" height="10"/><rect x="280" y="220" width="10" height="10"/><rect x="290" y="220" width="10" height="10"/><rect x="300" y="220" width="10" height="10"/><rect x="320" y="220" width="10" height="10"/><rect x="340" y="220" width="10" height="10"/><rect x="370" y="220" width="10" height="10"/><rect x="380" y="220" width="10" height="10"/><rect x="390" y="220" width="10" height="10"/><rect x="400" y="220" width="10" height="10"/><rect x="430" y="220" width="10" height="10"/><rect x="460" y="220" width="10" height="10"/><rect x="70" y="230" width="10" height="10"/><rect x="80" y="230" width="10" height="10"/><rect x="110" y="230" width="10" height="10"/><rect x="150" y="230" width="10" height="10"/><rect x="190" y="230" width="10" height="10"/><rect x="210" y="230" width="10" height="10"/><rect x="230" y="230" width="10" height="10"/><rect x="250" y="230" width="10" height="10"/><rect x="290" y="230" width="10" height="10"/><rect x="300" y="230" width="10" height="10"/><rect x="310" y="230" width="10" height="10"/><rect x="330" y="230" width="10" height="10"/><rect x="340" y="230" width="10" height="10"/><rect x="350" y="230" width="10" height="10"/><rect x="380" y="230" width="10" height="10"/><rect x="390" y="230" width="10" height="10"/><rect x="400" y="230" width="10" height="10"/><rect x="410" y="230" width="10" height="10"/><rect x="430" y="230" width="10" height="10"/><rect x="440" y="230" width="10" height="10"/><rect x="460" y="230" width="10" height="10"/><rect x="60" y="240" width="10" height="10"/><rect x="70" y="240" width="10" height="10"/><rect x="100" y="240" width="10" height="10"/><rect x="110" y="240" width="10" height="10"/><rect x="120" y="240" width="10" height="10"/><rect x="130" y="240" width="10" height="10"/><rect x="150" y="240" width="10" height="10"/><rect x="170" y="240" width="10" height="10"/><rect x="180" y="240" width="10" height="10"/><rect x="200" y="240" width="10" height="10"/><rect x="220" y="240" width="10" height="10"/><rect x="250" y="240" width="10" height="10"/><rect x="270" y="240" width="10" height="10"/><rect x="280" y="240" width="10" height="10"/><rect x="290" y="240" width="10" height="10"/><rect x="330" y="240" width="10" height="10"/><rect x="360" y="240" width="10" height="10"/><rect x="370" y="240" width="10" height="10"/><rect x="400" y="240" width="10" height="10"/><rect x="410" y="240" width="10" height="10"/><rect x="420" y="240" width="10" height="10"/><rect x="430" y="240" width="10" height="10"/><rect x="460" y="240" width="10" height="10"/><rect x="70" y="250" width="10" height="10"/><rect x="80" y="250" width="10" height="10"/><rect x="100" y="250" width="10" height="10"/><rect x="150" y="250" width="10" height="10"/><rect x="160" y="250" width="10" height="10"/><rect x="170" y="250" width="10" height="10"/><rect x="190" y="250" width="10" height="10"/><rect x="210" y="250" width="10" height="10"/><rect x="230" y="250" width="10" height="10"/><rect x="280" y="250" width="10" height="10"/><rect x="290" y="250" width="10" height="10"/><rect x="300" y="250" width="10" height="10"/><rect x="310" y="250" width="10" height="10"/><rect x="330" y="250" width="10" height="10"/><rect x="380" y="250" width="10" height="10"/><rect x="390" y="250" width="10" height="10"/><rect x="400" y="250" width="10" height="10"/><rect x="460" y="250" width="10" height="10"/><rect x="80" y="260" width="10" height="10"/><rect x="120" y="260" width="10" height="10"/><rect x="170" y="260" width="10" height="10"/><rect x="180" y="260" width="10" height="10"/><rect x="200" y="260" width="10" height="10"/><rect x="220" y="260" width="10" height="10"/><rect x="230" y="260" width="10" height="10"/><rect x="260" y="260" width="10" height="10"/><rect x="270" y="260" width="10" height="10"/><rect x="280" y="260" width="10" height="10"/><rect x="290" y="260" width="10" height="10"/><rect x="300" y="260" width="10" height="10"/><rect x="310" y="260" width="10" height="10"/><rect x="350" y="260" width="10" height="10"/><rect x="360" y="260" width="10" height="10"/><rect x="380" y="260" width="10" height="10"/><rect x="400" y="260" width="10" height="10"/><rect x="430" y="260" width="10" height="10"/><rect x="450" y="260" width="10" height="10"/><rect x="460" y="260" width="10" height="10"/><rect x="90" y="270" width="10" height="10"/><rect x="100" y="270" width="10" height="10"/><rect x="140" y="270" width="10" height="10"/><rect x="180" y="270" width="10" height="10"/><rect x="200" y="270" width="10" height="10"/><rect x="250" y="270" width="10" height="10"/><rect x="280" y="270" width="10" height="10"/><rect x="290" y="270" width="10" height="10"/><rect x="300" y="270" width="10" height="10"/><rect x="310" y="270" width="10" height="10"/><rect x="330" y="270" width="10" height="10"/><rect x="370" y="270" width="10" height="10"/><rect x="380" y="270" width="10" height="10"/><rect x="400" y="270" width="10" height="10"/><rect x="410" y="270" width="10" height="10"/><rect x="440" y="270" width="10" height="10"/><rect x="460" y="270" width="10" height="10"/><rect x="70" y="280" width="10" height="10"/><rect x="90" y="280" width="10" height="10"/><rect x="100" y="280" width="10" height="10"/><rect x="110" y="280" width="10" height="10"/><rect x="120" y="280" width="10" height="10"/><rect x="130" y="280" width="10" height="10"/><rect x="170" y="280" width="10" height="10"/><rect x="190" y="280" width="10" height="10"/><rect x="200" y="280" width="10" height="10"/><rect x="220" y="280" width="10" height="10"/><rect x="230" y="280" width="10" height="10"/><rect x="250" y="280" width="10" height="10"/><rect x="260" y="280" width="10" height="10"/><rect x="280" y="280" width="10" height="10"/><rect x="290" y="280" width="10" height="10"/><rect x="330" y="280" width="10" height="10"/><rect x="370" y="280" width="10" height="10"/><rect x="400" y="280" width="10" height="10"/><rect x="420" y="280" width="10" height="10"/><rect x="460" y="280" width="10" height="10"/><rect x="70" y="290" width="10" height="10"/><rect x="80" y="290" width="10" height="10"/><rect x="160" y="290" width="10" height="10"/><rect x="170" y="290" width="10" height="10"/><rect x="180" y="290" width="10" height="10"/><rect x="200" y="290" width="10" height="10"/><rect x="210" y="290" width="10" height="10"/><rect x="240" y="290" width="10" height="10"/><rect x="250" y="290" width="10" height="10"/><rect x="280" y="290" width="10" height="10"/><rect x="290" y="290" width="10" height="10"/><rect x="320" y="290" width="10" height="10"/><rect x="330" y="290" width="10" height="10"/><rect x="340" y="290" width="10" height="10"/><rect x="360" y="290" width="10" height="10"/><rect x="400" y="290" width="10" height="10"/><rect x="420" y="290" width="10" height="10"/><rect x="430" y="290" width="10" height="10"/><rect x="460" y="290" width="10" height="10"/><rect x="60" y="300" width="10" height="10"/><rect x="70" y="300" width="10" height="10"/><rect x="110" y="300" width="10" height="10"/><rect x="120" y="300" width="10" height="10"/><rect x="150" y="300" width="10" height="10"/><rect x="160" y="300" width="10" height="10"/><rect x="180" y="300" width="10" height="10"/><rect x="190" y="300" width="10" height="10"/><rect x="200" y="300" width="10" height="10"/><rect x="250" y="300" width="10" height="10"/><rect x="260" y="300" width="10" height="10"/><rect x="290" y="300" width="10" height="10"/><rect x="300" y="300" width="10" height="10"/><rect x="340" y="300" width="10" height="10"/><rect x="380" y="300" width="10" height="10"/><rect x="400" y="300" width="10" height="10"/><rect x="410" y="300" width="10" height="10"/><rect x="420" y="300" width="10" height="10"/><rect x="450" y="300" width="10" height="10"/><rect x="60" y="310" width="10" height="10"/><rect x="90" y="310" width="10" height="10"/><rect x="100" y="310" width="10" height="10"/><rect x="140" y="310" width="10" height="10"/><rect x="160" y="310" width="10" height="10"/><rect x="170" y="310" width="10" height="10"/><rect x="180" y="310" width="10" height="10"/><rect x="210" y="310" width="10" height="10"/><rect x="230" y="310" width="10" height="10"/><rect x="250" y="310" width="10" height="10"/><rect x="290" y="310" width="10" height="10"/><rect x="300" y="310" width="10" height="10"/><rect x="330" y="310" width="10" height="10"/><rect x="340" y="310" width="10" height="10"/><rect x="350" y="310" width="10" height="10"/><rect x="360" y="310" width="10" height="10"/><rect x="370" y="310" width="10" height="10"/><rect x="390" y="310" width="10" height="10"/><rect x="400" y="310" width="10" height="10"/><rect x="410" y="310" width="10" height="10"/><rect x="430" y="310" width="10" height="10"/><rect x="450" y="310" width="10" height="10"/><rect x="460" y="310" width="10" height="10"/><rect x="60" y="320" width="10" height="10"/><rect x="70" y="320" width="10" height="10"/><rect x="80" y="320" width="10" height="10"/><rect x="100" y="320" width="10" height="10"/><rect x="110" y="320" width="10" height="10"/><rect x="120" y="320" width="10" height="10"/><rect x="150" y="320" width="10" height="10"/><rect x="170" y="320" width="10" height="10"/><rect x="210" y="320" width="10" height="10"/><rect x="220" y="320" width="10" height="10"/><rect x="230" y="320" width="10" height="10"/><rect x="250" y="320" width="10" height="10"/><rect x="270" y="320" width="10" height="10"/><rect x="280" y="320" width="10" height="10"/><rect x="290" y="320" width="10" height="10"/><rect x="300" y="320" width="10" height="10"/><rect x="330" y="320" width="10" height="10"/><rect x="340" y="320" width="10" height="10"/><rect x="370" y="320" width="10" height="10"/><rect x="390" y="320" width="10" height="10"/><rect x="420" y="320" width="10" height="10"/><rect x="430" y="320" width="10" height="10"/><rect x="440" y="320" width="10" height="10"/><rect x="460" y="320" width="10" height="10"/><rect x="60" y="330" width="10" height="10"/><rect x="70" y="330" width="10" height="10"/><rect x="100" y="330" width="10" height="10"/><rect x="110" y="330" width="10" height="10"/><rect x="140" y="330" width="10" height="10"/><rect x="150" y="330" width="10" height="10"/><rect x="160" y="330" width="10" height="10"/><rect x="180" y="330" width="10" height="10"/><rect x="210" y="330" width="10" height="10"/><rect x="220" y="330" width="10" height="10"/><rect x="260" y="330" width="10" height="10"/><rect x="300" y="330" width="10" height="10"/><rect x="320" y="330" width="10" height="10"/><rect x="330" y="330" width="10" height="10"/><rect x="340" y="330" width="10" height="10"/><rect x="360" y="330" width="10" height="10"/><rect x="370" y="330" width="10" height="10"/><rect x="380" y="330" width="10" height="10"/><rect x="390" y="330" width="10" height="10"/><rect x="420" y="330" width="10" height="10"/><rect x="430" y="330" width="10" height="10"/><rect x="460" y="330" width="10" height="10"/><rect x="60" y="340" width="10" height="10"/><rect x="90" y="340" width="10" height="10"/><rect x="110" y="340" width="10" height="10"/><rect x="120" y="340" width="10" height="10"/><rect x="130" y="340" width="10" height="10"/><rect x="200" y="340" width="10" height="10"/><rect x="240" y="340" width="10" height="10"/><rect x="280" y="340" width="10" height="10"/><rect x="300" y="340" width="10" height="10"/><rect x="390" y="340" width="10" height="10"/><rect x="400" y="340" width="10" height="10"/><rect x="410" y="340" width="10" height="10"/><rect x="70" y="350" width="10" height="10"/><rect x="90" y="350" width="10" height="10"/><rect x="110" y="350" width="10" height="10"/><rect x="130" y="350" width="10" height="10"/><rect x="160" y="350" width="10" height="10"/><rect x="170" y="350" width="10" height="10"/><rect x="220" y="350" width="10" height="10"/><rect x="240" y="350" width="10" height="10"/><rect x="270" y="350" width="10" height="10"/><rect x="280" y="350" width="10" height="10"/><rect x="300" y="350" width="10" height="10"/><rect x="310" y="350" width="10" height="10"/><rect x="320" y="350" width="10" height="10"/><rect x="380" y="350" width="10" height="10"/><rect x="400" y="350" width="10" height="10"/><rect x="410" y="350" width="10" height="10"/><rect x="440" y="350" width="10" height="10"/><rect x="460" y="350" width="10" height="10"/><rect x="60" y="360" width="10" height="10"/><rect x="70" y="360" width="10" height="10"/><rect x="110" y="360" width="10" height="10"/><rect x="120" y="360" width="10" height="10"/><rect x="140" y="360" width="10" height="10"/><rect x="200" y="360" width="10" height="10"/><rect x="210" y="360" width="10" height="10"/><rect x="230" y="360" width="10" height="10"/><rect x="240" y="360" width="10" height="10"/><rect x="250" y="360" width="10" height="10"/><rect x="280" y="360" width="10" height="10"/><rect x="300" y="360" width="10" height="10"/><rect x="320" y="360" width="10" height="10"/><rect x="330" y="360" width="10" height="10"/><rect x="350" y="360" width="10" height="10"/><rect x="360" y="360" width="10" height="10"/><rect x="370" y="360" width="10" height="10"/><rect x="390" y="360" width="10" height="10"/><rect x="430" y="360" width="10" height="10"/><rect x="440" y="360" width="10" height="10"/><rect x="460" y="360" width="10" height="10"/><rect x="90" y="370" width="10" height="10"/><rect x="110" y="370" width="10" height="10"/><rect x="130" y="370" width="10" height="10"/><rect x="140" y="370" width="10" height="10"/><rect x="150" y="370" width="10" height="10"/><rect x="160" y="370" width="10" height="10"/><rect x="170" y="370" width="10" height="10"/><rect x="180" y="370" width="10" height="10"/><rect x="190" y="370" width="10" height="10"/><rect x="200" y="370" width="10" height="10"/><rect x="210" y="370" width="10" height="10"/><rect x="220" y="370" width="10" height="10"/><rect x="240" y="370" width="10" height="10"/><rect x="280" y="370" width="10" height="10"/><rect x="290" y="370" width="10" height="10"/><rect x="300" y="370" width="10" height="10"/><rect x="320" y="370" width="10" height="10"/><rect x="360" y="370" width="10" height="10"/><rect x="370" y="370" width="10" height="10"/><rect x="400" y="370" width="10" height="10"/><rect x="410" y="370" width="10" height="10"/><rect x="420" y="370" width="10" height="10"/><rect x="450" y="370" width="10" height="10"/><rect x="60" y="380" width="10" height="10"/><rect x="70" y="380" width="10" height="10"/><rect x="80" y="380" width="10" height="10"/><rect x="120" y="380" width="10" height="10"/><rect x="130" y="380" width="10" height="10"/><rect x="140" y="380" width="10" height="10"/><rect x="210" y="380" width="10" height="10"/><rect x="220" y="380" width="10" height="10"/><rect x="250" y="380" width="10" height="10"/><rect x="310" y="380" width="10" height="10"/><rect x="330" y="380" width="10" height="10"/><rect x="340" y="380" width="10" height="10"/><rect x="380" y="380" width="10" height="10"/><rect x="390" y="380" width="10" height="10"/><rect x="400" y="380" width="10" height="10"/><rect x="410" y="380" width="10" height="10"/><rect x="420" y="380" width="10" height="10"/><rect x="140" y="390" width="10" height="10"/><rect x="150" y="390" width="10" height="10"/><rect x="180" y="390" width="10" height="10"/><rect x="190" y="390" width="10" height="10"/><rect x="200" y="390" width="10" height="10"/><rect x="250" y="390" width="10" height="10"/><rect x="260" y="390" width="10" height="10"/><rect x="270" y="390" width="10" height="10"/><rect x="290" y="390" width="10" height="10"/><rect x="300" y="390" width="10" height="10"/><rect x="320" y="390" width="10" height="10"/><rect x="330" y="390" width="10" height="10"/><rect x="350" y="390" width="10" height="10"/><rect x="360" y="390" width="10" height="10"/><rect x="370" y="390" width="10" height="10"/><rect x="380" y="390" width="10" height="10"/><rect x="420" y="390" width="10" height="10"/><rect x="430" y="390" width="10" height="10"/><rect x="440" y="390" width="10" height="10"/><rect x="450" y="390" width="10" height="10"/><rect x="460" y="390" width="10" height="10"/><rect x="60" y="400" width="10" height="10"/><rect x="70" y="400" width="10" height="10"/><rect x="80" y="400" width="10" height="10"/><rect x="90" y="400" width="10" height="10"/><rect x="100" y="400" width="10" height="10"/><rect x="110" y="400" width="10" height="10"/><rect x="120" y="400" width="10" height="10"/><rect x="140" y="400" width="10" height="10"/><rect x="190" y="400" width="10" height="10"/><rect x="200" y="400" width="10" height="10"/><rect x="210" y="400" width="10" height="10"/><rect x="230" y="400" width="10" height="10"/><rect x="240" y="400" width="10" height="10"/><rect x="250" y="400" width="10" height="10"/><rect x="260" y="400" width="10" height="10"/><rect x="290" y="400" width="10" height="10"/><rect x="310" y="400" width="10" height="10"/><rect x="320" y="400" width="10" height="10"/><rect x="330" y="400" width="10" height="10"/><rect x="340" y="400" width="10" height="10"/><rect x="380" y="400" width="10" height="10"/><rect x="400" y="400" width="10" height="10"/><rect x="420" y="400" width="10" height="10"/><rect x="440" y="400" width="10" height="10"/><rect x="460" y="400" width="10" height="10"/><rect x="60" y="410" width="10" height="10"/><rect x="120" y="410" width="10" height="10"/><rect x="200" y="410" width="10" height="10"/><rect x="240" y="410" width="10" height="10"/><rect x="250" y="410" width="10" height="10"/><rect x="270" y="410" width="10" height="10"/><rect x="290" y="410" width="10" height="10"/><rect x="320" y="410" width="10" height="10"/><rect x="330" y="410" width="10" height="10"/><rect x="350" y="410" width="10" height="10"/><rect x="380" y="410" width="10" height="10"/><rect x="420" y="410" width="10" height="10"/><rect x="430" y="410" width="10" height="10"/><rect x="450" y="410" width="10" height="10"/><rect x="60" y="420" width="10" height="10"/><rect x="80" y="420" width="10" height="10"/><rect x="90" y="420" width="10" height="10"/><rect x="100" y="420" width="10" height="10"/><rect x="120" y="420" width="10" height="10"/><rect x="160" y="420" width="10" height="10"/><rect x="170" y="420" width="10" height="10"/><rect x="180" y="420" width="10" height="10"/><rect x="210" y="420" width="10" height="10"/><rect x="230" y="420" width="10" height="10"/><rect x="240" y="420" width="10" height="10"/><rect x="250" y="420" width="10" height="10"/><rect x="270" y="420" width="10" height="10"/><rect x="290" y="420" width="10" height="10"/><rect x="310" y="420" width="10" height="10"/><rect x="320" y="420" width="10" height="10"/><rect x="330" y="420" width="10" height="10"/><rect x="340" y="420" width="10" height="10"/><rect x="350" y="420" width="10" height="10"/><rect x="370" y="420" width="10" height="10"/><rect x="380" y="420" width="10" height="10"/><rect x="390" y="420" width="10" height="10"/><rect x="400" y="420" width="10" height="10"/><rect x="410" y="420" width="10" height="10"/><rect x="420" y="420" width="10" height="10"/><rect x="430" y="420" width="10" height="10"/><rect x="440" y="420" width="10" height="10"/><rect x="450" y="420" width="10" height="10"/><rect x="460" y="420" width="10" height="10"/><rect x="60" y="430" width="10" height="10"/><rect x="80" y="430" width="10" height="10"/><rect x="90" y="430" width="10" height="10"/><rect x="100" y="430" width="10" height="10"/><rect x="120" y="430" width="10" height="10"/><rect x="180" y="430" width="10" height="10"/><rect x="210" y="430" width="10" height="10"/><rect x="240" y="430" width="10" height="10"/><rect x="250" y="430" width="10" height="10"/><rect x="270" y="430" width="10" height="10"/><rect x="290" y="430" width="10" height="10"/><rect x="320" y="430" width="10" height="10"/><rect x="330" y="430" width="10" height="10"/><rect x="370" y="430" width="10" height="10"/><rect x="410" y="430" width="10" height="10"/><rect x="420" y="430" width="10" height="10"/><rect x="450" y="430" width="10" height="10"/><rect x="60" y="440" width="10" height="10"/><rect x="80" y="440" width="10" height="10"/><rect x="90" y="440" width="10" height="10"/><rect x="100" y="440" width="10" height="10"/><rect x="120" y="440" width="10" height="10"/><rect x="140" y="440" width="10" height="10"/><rect x="150" y="440" width="10" height="10"/><rect x="160" y="440" width="10" height="10"/><rect x="210" y="440" width="10" height="10"/><rect x="220" y="440" width="10" height="10"/><rect x="250" y="440" width="10" height="10"/><rect x="290" y="440" width="10" height="10"/><rect x="330" y="440" width="10" height="10"/><rect x="370" y="440" width="10" height="10"/><rect x="380" y="440" width="10" height="10"/><rect x="390" y="440" width="10" height="10"/><rect x="420" y="440" width="10" height="10"/><rect x="430" y="440" width="10" height="10"/><rect x="460" y="440" width="10" height="10"/><rect x="60" y="450" width="10" height="10"/><rect x="120" y="450" width="10" height="10"/><rect x="150" y="450" width="10" height="10"/><rect x="180" y="450" width="10" height="10"/><rect x="190" y="450" width="10" height="10"/><rect x="200" y="450" width="10" height="10"/><rect x="240" y="450" width="10" height="10"/><rect x="280" y="450" width="10" height="10"/><rect x="320" y="450" width="10" height="10"/><rect x="330" y="450" width="10" height="10"/><rect x="340" y="450" width="10" height="10"/><rect x="360" y="450" width="10" height="10"/><rect x="380" y="450" width="10" height="10"/><rect x="390" y="450" width="10" height="10"/><rect x="400" y="450" width="10" height="10"/><rect x="430" y="450" width="10" height="10"/><rect x="60" y="460" width="10" height="10"/><rect x="70" y="460" width="10" height="10"/><rect x="80" y="460" width="10" height="10"/><rect x="90" y="460" width="10" height="10"/><rect x="100" y="460" width="10" height="10"/><rect x="110" y="460" width="10" height="10"/><rect x="120" y="460" width="10" height="10"/><rect x="140" y="460" width="10" height="10"/><rect x="150" y="460" width="10" height="10"/><rect x="220" y="460" width="10" height="10"/><rect x="230" y="460" width="10" height="10"/><rect x="240" y="460" width="10" height="10"/><rect x="260" y="460" width="10" height="10"/><rect x="300" y="460" width="10" height="10"/><rect x="330" y="460" width="10" height="10"/><rect x="340" y="460" width="10" height="10"/><rect x="360" y="460" width="10" height="10"/><rect x="380" y="460" width="10" height="10"/><rect x="400" y="460" width="10" height="10"/><rect x="420" y="460" width="10" height="10"/><rect x="430" y="460" width="10" height="10"/><rect x="460" y="460" width="10" height="10"/>
  </g>
</svg>
